<svg xmlns="http://www.w3.org/2000/svg" width="400" height="400" id="apple"><path fill="#FFBE55" d="M338.168 219.19c0 40.691-26.461 96.925-58.453 127.645-14.189 13.643-29.473 22.25-44.02 22.25-9.197 0-18.367-1.477-26.258-3.858a57.102 57.102 0 0 0-33.12 0c-7.89 2.382-17.06 3.858-26.256 3.858-15.242 0-31.299-9.457-46.061-24.251-31.07-31.11-56.414-85.827-56.414-125.645 0-58.748 35.143-94.242 68.188-102.809 15.83-4.106 34.197-1.461 49.031 2.399a111.147 111.147 0 0 0 46.817 2.007c3.135-.54 6.242-1.209 9.326-2.007 14.834-3.861 33.193-6.505 49.031-2.399 33.048 8.569 68.189 44.062 68.189 102.81z"></path><path fill="#2A94F4" d="M352.412 34.551s-8.16 56.878-51.133 73.434c-41.084 15.83-77.705-26.966-92.726-23.596a5.994 5.994 0 0 0-1.892.735.081.081 0 0 0-.033.016l.009-.032c.505-1.533 16.979-50.605 59.286-53.821 42.973-3.264 66.36 16.319 86.489 3.264z"></path><path fill="#FCD2B1" d="M223.309 140.844c0 6.684-10.494 12.248-24.422 13.511a64.79 64.79 0 0 1-6.006.27c-2.146 0-4.233-.097-6.249-.283-13.798-1.315-24.17-6.854-24.17-13.498h60.847z"></path><path fill="#0B4870" d="M171.676 77.29a6.109 6.109 0 0 1 8.273 2.531c.359.685 4.855 9.277 9.392 22.986l16.539-25.115a6.106 6.106 0 0 1 8.47-1.738 6.108 6.108 0 0 1 1.746 8.467l-22.318 33.895a186.277 186.277 0 0 1 4.057 22.528c.512 4.364.88 8.879 1.052 13.511a64.79 64.79 0 0 1-6.006.27c-2.146 0-4.233-.097-6.249-.286a157.68 157.68 0 0 0-1.127-13.495"></path></svg>